#!OML:ASF I:\Actors\actors\Patient Classification 2\Patient 1\Session 1\actor1.ASF
:FULLY-SPECIFIED
:DEGREES
783
root -0.619866 18.576 6.19807 -2.75336 -4.11654 -1.98181
lowerback 3.96538 0.593402 -0.841811
upperback -2.29966 0.763228 0.487178
thorax -4.61709 0.41311 0.915178
lowerneck -11.1739 -0.397972 2.09866
upperneck 21.3861 -0.881792 -0.502804
head 8.48005 -0.303772 -0.614805
rclavicle -7.05686e-015 -1.2921e-014
rhumerus -54.6642 -9.35459 -81.8864
rradius 43.1587
rwrist 7.38828
rhand 0.104883 -39.5447
rfingers 7.12502
rthumb 25.6908 -67.8309
lclavicle -7.05686e-015 -1.2921e-014
lhumerus -45.8401 7.24575 86.9713
lradius 37.5779
lwrist -12.2424
lhand -7.04552 -25.1457
lfingers 7.12502
lthumb 18.827 3.96322
rfemur 0 0 0
rtibia 0
rfoot 0 0
rtoes 0
lfemur 1.91979 -7.86505 -14.2544
ltibia 21.943
lfoot -26.2953 15.7089
ltoes -54.5761
784
root -0.618142 18.577 6.19218 -2.75597 -4.20163 -1.97192
lowerback 3.97616 0.61925 -0.805801
upperback -2.26971 0.799029 0.468728
thorax -4.59203 0.429214 0.873107
lowerneck -11.1629 -0.39822 2.13801
upperneck 21.3179 -0.878976 -0.549346
head 8.45447 -0.304564 -0.636298
rclavicle -1.93815e-015 3.77691e-015
rhumerus -54.4396 -9.27724 -81.9933
rradius 43.1449
rwrist 7.62407
rhand -0.328255 -39.5215
rfingers 7.12502
rthumb 25.2759 -67.867
lclavicle -1.93815e-015 3.77691e-015
lhumerus -45.7745 7.13227 87.0621
lradius 37.5603
lwrist -12.0676
lhand -7.7356 -25.8383
lfingers 7.12502
lthumb 18.1632 3.33366
rfemur 0 0 0
rtibia 0
rfoot 0 0
rtoes 0
lfemur 1.92857 -7.9616 -14.3043
ltibia 21.9591
lfoot -26.4225 15.7849
ltoes -54.4283
785
root -0.617062 18.5781 6.18609 -2.75032 -4.2973 -2.01457
lowerback 3.99543 0.645452 -0.728889
upperback -2.24589 0.838595 0.471472
thorax -4.5779 0.446366 0.829583
lowerneck -11.165 -0.395294 2.14805
upperneck 21.2745 -0.873638 -0.56302
head 8.44015 -0.302961 -0.641774
rclavicle 4.96962e-017 2.10712e-014
rhumerus -54.2339 -9.19606 -82.0913
rradius 43.1992
rwrist 7.81323
rhand -0.637553 -39.5848
rfingers 7.12502
rthumb 24.9796 -67.9719
lclavicle 4.96962e-017 2.10712e-014
lhumerus -45.709 7.03271 87.1489
lradius 37.5603
lwrist -11.9736
lhand -7.90991 -25.981
lfingers 7.12502
lthumb 17.9955 3.20647
rfemur 0 0 0
rtibia 0
rfoot 0 0
rtoes 0
lfemur 1.92802 -8.02149 -14.2782
ltibia 21.9685
lfoot -26.5264 15.8382
ltoes -54.3018
786
root -0.648409 18.6011 6.10815 -2.01874 -2.95356 -2.01273
lowerback 4.45354 0.211399 -1.27698
upperback -2.65987 0.223606 0.558564
thorax -5.26151 0.167059 1.27562
lowerneck -11.2206 -0.379537 2.15119
upperneck 21.2707 -0.852241 -0.569276
head 8.44936 -0.293209 -0.642385
rclavicle 8.02593e-015 -3.77691e-015
rhumerus -53.9825 -9.12389 -82.1763
rradius 43.2621
rwrist 7.92422
rhand -0.841715 -39.6287
rfingers 7.12502
rthumb 24.7839 -68.0428
lclavicle 8.02593e-015 -3.77691e-015
lhumerus -45.6014 6.97515 87.2277
lradius 37.5527
lwrist -12.0522
lhand -7.18393 -25.081
lfingers 7.12502
lthumb 18.6939 4.04074
rfemur 0 0 0
rtibia 0
rfoot 0 0
rtoes 0
lfemur 0.41932 -6.79613 -13.4798
ltibia 21.9835
lfoot -24.805 14.0034
ltoes -54.8997
787
root -0.648381 18.6014 6.09948 -2.03514 -2.93382 -1.97324
lowerback 4.46827 0.210854 -1.31793
upperback -2.60683 0.219979 0.556234
thorax -5.21451 0.165995 1.29648
lowerneck -11.3337 -0.365615 2.09628
upperneck 21.3303 -0.835522 -0.520593
head 8.49112 -0.28416 -0.615895
rclavicle -1.2424e-016 -7.95139e-016
rhumerus -53.7031 -9.04851 -82.2536
rradius 43.3054
rwrist 7.86443
rhand -1.04344 -39.695
rfingers 7.12502
rthumb 24.5906 -68.1356
lclavicle -1.2424e-016 -7.95139e-016
lhumerus -45.5004 6.9115 87.314
lradius 37.5576
lwrist -12.1132
lhand -6.70251 -24.5928
lfingers 7.12502
lthumb 19.1569 4.48368
rfemur 0 0 0
rtibia 0
rfoot 0 0
rtoes 0
lfemur 0.393062 -6.76606 -13.5104
ltibia 22.0046
lfoot -24.7728 13.9849
ltoes -54.9336
788
root -0.646471 18.6014 6.09234 -2.02836 -2.93013 -1.93541
lowerback 4.48052 0.214763 -1.31942
upperback -2.5903 0.224234 0.54038
thorax -5.20427 0.167672 1.28047
lowerneck -11.3797 -0.35949 2.09772
upperneck 21.3706 -0.824481 -0.538822
head 8.51325 -0.280332 -0.6215
rclavicle -8.84592e-015 2.54444e-014
rhumerus -53.485 -8.97483 -82.321
rradius 43.3553
rwrist 7.72116
rhand -1.1926 -39.7766
rfingers 7.12502
rthumb 24.4476 -68.2366
lclavicle -8.84592e-015 2.54444e-014
lhumerus -45.4722 6.84613 87.3667
lradius 37.5917
lwrist -12.1236
lhand -6.60186 -24.7199
lfingers 7.12502
lthumb 19.2537 4.34697
rfemur 0 0 0
rtibia 0
rfoot 0 0
rtoes 0
lfemur 0.34862 -6.73501 -13.547
ltibia 22.0227
lfoot -24.7168 13.9791
ltoes -55.0117
789
root -0.644513 18.6025 6.08438 -1.96341 -2.96577 -1.94997
lowerback 4.49156 0.225245 -1.26669
upperback -2.61757 0.241385 0.536188
thorax -5.23932 0.174648 1.24497
lowerneck -11.3715 -0.353168 2.11415
upperneck 21.384 -0.814163 -0.559986
head 8.51624 -0.276203 -0.630314
rclavicle 3.72721e-015 5.36719e-015
rhumerus -53.2716 -8.93664 -82.3608
rradius 43.3756
rwrist 7.6681
rhand -1.17245 -39.8551
rfingers 7.12502
rthumb 24.4669 -68.3124
lclavicle 3.72721e-015 5.36719e-015
lhumerus -45.4508 6.80449 87.3946
lradius 37.6058
lwrist -12.0915
lhand -6.48605 -24.7365
lfingers 7.12502
lthumb 19.3651 4.3193
rfemur 0 0 0
rtibia 0
rfoot 0 0
rtoes 0
lfemur 0.253824 -6.69641 -13.5215
ltibia 22.0143
lfoot -24.6193 14.0242
ltoes -55.1264
790
root -0.645105 18.6052 6.07552 -1.8632 -2.95508 -1.95738
lowerback 4.48851 0.223649 -1.27057
upperback -2.65972 0.239094 0.539845
thorax -5.28168 0.174286 1.25116
lowerneck -11.3979 -0.34781 2.0962
upperneck 21.4494 -0.817456 -0.500593
head 8.54374 -0.272592 -0.608155
rclavicle 1.31695e-014 -2.18663e-015
rhumerus -53.0415 -8.89474 -82.4103
rradius 43.3779
rwrist 7.61587
rhand -1.11944 -39.6988
rfingers 7.12502
rthumb 24.5177 -68.1492
lclavicle 1.31695e-014 -2.18663e-015
lhumerus -45.4404 6.76749 87.4143
lradius 37.6276
lwrist -12.0514
lhand -6.44663 -24.7196
lfingers 7.12502
lthumb 19.403 4.33235
rfemur 0 0 0
rtibia 0
rfoot 0 0
rtoes 0
lfemur 0.101039 -6.72818 -13.4979
ltibia 22.0157
lfoot -24.5772 14.0797
ltoes -55.1428
791
root -0.646025 18.6078 6.06693 -1.78984 -2.91097 -1.93749
lowerback 4.48031 0.213785 -1.31726
upperback -2.67283 0.222882 0.541303
thorax -5.2905 0.168108 1.28037
lowerneck -11.4559 -0.350948 2.09898
upperneck 21.515 -0.833706 -0.459168
head 8.57681 -0.275226 -0.597007
rclavicle -6.03808e-015 1.98785e-015
rhumerus -52.8329 -8.81403 -82.4937
rradius 43.4459
rwrist 7.48487
rhand -1.22666 -39.5034
rfingers 7.12502
rthumb 24.4149 -67.9678
lclavicle -6.03808e-015 1.98785e-015
lhumerus -45.4436 6.73517 87.4379
lradius 37.6869
lwrist -12.0465
lhand -6.42217 -24.7498
lfingers 7.12502
lthumb 19.4265 4.29979
rfemur 0 0 0
rtibia 0
rfoot 0 0
rtoes 0
lfemur -0.0278737 -6.73451 -13.4979
ltibia 22.02
lfoot -24.5493 14.06
ltoes -55.1297
792
root -0.644472 18.6087 6.06034 -1.77397 -2.89683 -1.9088
lowerback 4.47425 0.207493 -1.33531
upperback -2.64959 0.21336 0.540567
thorax -5.26249 0.163667 1.2906
lowerneck -11.4982 -0.345423 2.09606
upperneck 21.5256 -0.826156 -0.460676
head 8.5883 -0.271928 -0.596448
rclavicle 8.02593e-015 -4.17448e-015
rhumerus -52.6002 -8.703 -82.5814
rradius 43.508
rwrist 7.37402
rhand -1.32486 -39.6216
rfingers 7.12502
rthumb 24.3208 -68.0986
lclavicle 8.02593e-015 -4.17448e-015
lhumerus -45.4315 6.71379 87.4771
lradius 37.7664
lwrist -12.0301
lhand -6.35839 -24.7113
lfingers 7.12502
lthumb 19.4878 4.33205
rfemur 0 0 0
rtibia 0
rfoot 0 0
rtoes 0
lfemur -0.0678296 -6.72748 -13.5265
ltibia 22.0123
lfoot -24.5257 14.0351
ltoes -55.1465
793
root -0.643018 18.609 6.05411 -1.74865 -2.89448 -1.87947
lowerback 4.46691 0.212605 -1.34137
upperback -2.65095 0.219751 0.538088
thorax -5.25996 0.16699 1.29086
lowerneck -11.4854 -0.353907 2.03866
upperneck 21.5339 -0.830357 -0.440073
head 8.589 -0.276356 -0.580311
rclavicle -2.26118e-015 -7.55382e-015
rhumerus -52.3865 -8.6075 -82.64
rradius 43.5112
rwrist 7.39231
rhand -1.31859 -39.6946
rfingers 7.12502
rthumb 24.3268 -68.1708
lclavicle -2.26118e-015 -7.55382e-015
lhumerus -45.4326 6.65817 87.5289
lradius 37.8267
lwrist -11.9629
lhand -6.32663 -24.6328
lfingers 7.12502
lthumb 19.5183 4.40753
rfemur 0 0 0
rtibia 0
rfoot 0 0
rtoes 0
lfemur -0.10624 -6.79876 -13.5707
ltibia 22.0023
lfoot -24.5351 14.0845
ltoes -55.127
794
root -0.643114 18.6103 6.04737 -1.6867 -2.88946 -1.87287
lowerback 4.42998 0.230056 -1.33494
upperback -2.67086 0.244108 0.542092
thorax -5.2605 0.179032 1.28927
lowerneck -11.4301 -0.395641 1.92962
upperneck 21.548 -0.881256 -0.366572
head 8.58376 -0.301549 -0.542529
rclavicle -1.8313e-014 1.55052e-014
rhumerus -52.2263 -8.52126 -82.6922
rradius 43.5555
rwrist 7.47737
rhand -1.29041 -39.7457
rfingers 7.12502
rthumb 24.3538 -68.2183
lclavicle -1.8313e-014 1.55052e-014
lhumerus -45.4272 6.57918 87.5818
lradius 37.8408
lwrist -11.8925
lhand -6.34064 -24.5914
lfingers 7.12502
lthumb 19.5049 4.4503
rfemur 0 0 0
rtibia 0
rfoot 0 0
rtoes 0
lfemur -0.189404 -6.85611 -13.5753
ltibia 21.9994
lfoot -24.5325 14.1232
ltoes -55.05
795
root -0.642876 18.6115 6.04246 -1.6498 -2.89543 -1.89924
lowerback 4.38048 0.238742 -1.2928
upperback -2.66782 0.259497 0.549359
thorax -5.22934 0.185039 1.27185
lowerneck -11.38 -0.400922 1.89162
upperneck 21.5339 -0.884858 -0.342467
head 8.56996 -0.30397 -0.528135
rclavicle 2.06239e-015 -7.15625e-015
rhumerus -52.0647 -8.40191 -82.7857
rradius 43.6473
rwrist 7.57703
rhand -1.67742 -39.7587
rfingers 7.12502
rthumb 23.9828 -68.2806
lclavicle 2.06239e-015 -7.15625e-015
lhumerus -45.3869 6.5792 87.5718
lradius 37.8033
lwrist -11.9118
lhand -6.32007 -24.5601
lfingers 7.12502
lthumb 19.5246 4.47956
rfemur 0 0 0
rtibia 0
rfoot 0 0
rtoes 0
lfemur -0.248653 -6.77193 -13.5228
ltibia 21.9996
lfoot -24.444 14.0763
ltoes -55.0507
796
root -0.641569 18.6118 6.03726 -1.65352 -2.90962 -1.91211
lowerback 4.39546 0.236896 -1.25678
upperback -2.66493 0.259018 0.544384
thorax -5.23459 0.183443 1.24649
lowerneck -11.3434 -0.364803 1.92165
upperneck 21.5161 -0.838411 -0.34804
head 8.55761 -0.280331 -0.529877
rclavicle 2.36057e-015 1.15295e-014
rhumerus -51.8808 -8.41174 -82.7436
rradius 43.4483
rwrist 7.80077
rhand -3.11122 -38.7831
rfingers 7.12502
rthumb 22.6072 -67.4793
lclavicle 2.36057e-015 1.15295e-014
lhumerus -45.3609 6.62442 87.5155
lradius 37.761
lwrist -11.9807
lhand -6.26318 -24.5168
lfingers 7.12502
lthumb 19.5793 4.51732
rfemur 0 0 0
rtibia 0
rfoot 0 0
rtoes 0
lfemur -0.272898 -6.63693 -13.4839
ltibia 22.0026
lfoot -24.3435 14.0128
ltoes -55.1128
